<?xml version="1.0" encoding="utf-8"?>
<!-- Generator: Adobe Illustrator 16.0.0, SVG Export Plug-In . SVG Version: 6.00 Build 0)  -->
<!DOCTYPE svg PUBLIC "-//W3C//DTD SVG 1.1//EN" "http://www.w3.org/Graphics/SVG/1.1/DTD/svg11.dtd">
<svg version="1.1" xmlns="http://www.w3.org/2000/svg" xmlns:xlink="http://www.w3.org/1999/xlink" x="0px" y="0px" width="960px"
	 height="560px" viewBox="0 0 960 560" enable-background="new 0 0 960 560" xml:space="preserve">
<g id="ears">
	<ellipse fill="#724BBA" stroke="#FFFFFF" stroke-miterlimit="10" cx="240" cy="236.5" rx="70" ry="101.5"/>
	<ellipse fill="#724BBA" stroke="#FFFFFF" stroke-miterlimit="10" cx="714" cy="251.5" rx="70" ry="101.5"/>
	<ellipse fill="#BAA7DD" stroke="#FFFFFF" stroke-miterlimit="10" cx="712.5" cy="250.925" rx="63.5" ry="92.075"/>
	<ellipse fill="#BAA7DD" stroke="#FFFFFF" stroke-miterlimit="10" cx="240.5" cy="235.925" rx="63.5" ry="92.075"/>
</g>
<g id="face">
	<ellipse fill="#724BBA" stroke="#FFFFFF" stroke-miterlimit="10" cx="477.027" cy="301.282" rx="205.294" ry="233.78"/>
</g>
<g id="forehead">
	<ellipse fill="#BAA7DD" cx="477.5" cy="231.75" rx="177.5" ry="151.254"/>
</g>
<g id="mouth_1_">
	<path fill="#FFFFFF" d="M674.961,310c0,120-93.565,217.633-199.114,217.633S279.733,430,279.733,310S674.961,190,674.961,310z"/>
</g>
<g id="teeth">
	<path fill="none" stroke="#724BBA" stroke-width="2" stroke-miterlimit="10" d="M325.017,281.55
		c0.278-1.516-17.262,91.507,0,162.784"/>
	<path fill="none" stroke="#724BBA" stroke-width="2" stroke-miterlimit="10" d="M373.309,269.084c0,0-21.548,148.048,0,206.76"/>
	<line fill="none" stroke="#724BBA" stroke-width="2" stroke-miterlimit="10" x1="476" y1="260.5" x2="476.399" y2="481"/>
	<path fill="none" stroke="#724BBA" stroke-width="2" stroke-miterlimit="10" d="M423.743,263.189c0,0-9.257,70.831,0,212.654"/>
	<path fill="none" stroke="#724BBA" stroke-width="2" stroke-miterlimit="10" d="M626.788,281.55
		c-0.278-1.516,17.263,91.507,0,162.784"/>
	<path fill="none" stroke="#724BBA" stroke-width="2" stroke-miterlimit="10" d="M578.496,269.084c0,0,21.548,148.048,0,206.76"/>
	<line fill="none" stroke="#724BBA" stroke-width="2" stroke-miterlimit="10" x1="475.805" y1="260.5" x2="475.405" y2="481"/>
	<path fill="none" stroke="#724BBA" stroke-width="2" stroke-miterlimit="10" d="M528.062,263.189c0,0,9.257,70.831,0,212.654"/>
</g>
<g id="gums">
	<polygon fill="#815EC1" stroke="#FFFFFF" stroke-miterlimit="10" points="281.493,295.079 291.088,291.484 300.749,288.194 
		313.108,284.336 319.896,282.375 331.481,279.249 339.954,277.137 348.886,275.063 357.701,273.165 366.547,271.405 
		376.354,269.619 385.055,268.178 398.201,266.252 411.038,264.659 415.518,264.169 422.513,263.474 429.157,262.889 
		437.484,262.263 445.506,261.771 453.329,261.2 461.167,260.5 469,260.5 476,260.5 478.167,260.889 488.333,260.985 504.5,261.502 
		514.497,262.048 529.302,263.177 547.014,265.036 564.811,267.472 580.32,270.066 594.885,272.912 605.116,275.151 
		620.835,278.986 632.657,282.19 644.704,285.745 654.635,288.899 664.923,292.383 671.866,294.86 672.997,295.273 672.216,292.763 
		670.519,288.398 668.729,284.722 666.622,281.089 663.901,277.115 659.452,271.708 655,267.184 649.489,262.407 644,258.296 
		639.021,254.991 633.148,251.5 625.238,247.355 619.648,244.741 613.656,242.184 606.324,239.352 597.853,236.432 587.881,233.412 
		576.474,230.433 564.729,227.828 554.487,225.895 545.295,224.406 535.635,223.075 527.138,222.089 516.781,221.112 
		507.491,220.438 500.171,220.036 490.831,219.687 480,219.5 472,219.5 461.163,219.769 444.341,220.625 434.04,221.45 
		418.025,223.206 406.065,224.92 395.061,226.829 381.729,229.608 368.415,232.965 354.56,237.185 340.18,242.536 329.293,247.433 
		324.468,249.9 317.661,253.766 310.547,258.4 303.91,263.464 298.075,268.745 293.388,273.825 288.771,280 283.854,289.15 	"/>
	<polyline fill="#815EC1" stroke="#FFFFFF" stroke-miterlimit="10" points="321.297,442.199 325.253,444.455 330.812,447.375 
		338.253,450.983 342.734,453.02 348.701,455.59 355.725,458.426 363.552,461.359 371.169,463.997 379.201,466.558 386.229,468.619 
		392.471,470.312 401.408,472.518 407.754,473.929 418.421,476.017 427.41,477.502 441.318,479.311 449.672,480.113 458.155,480.71 
		465.499,481.05 473.167,481.251 480,481.236 492.519,480.878 501.806,480.299 513.338,479.205 524.813,477.7 534.621,476.081 
		546.154,473.778 556.188,471.419 565.482,468.936 575.879,465.811 585.771,462.492 596.471,458.519 603.648,455.623 
		610.908,452.506 617.63,449.447 625.024,445.888 630.284,443.23 631.501,442.199 628.048,447.874 621.884,455.52 617.379,460.693 
		610.334,468.171 602.083,476.094 591.918,484.775 582.303,492.028 573.351,498.029 563.713,503.753 552.58,509.486 
		541.438,514.346 531.494,517.984 516.722,522.228 504.941,524.655 492.137,526.356 480,527.081 474,527.133 468.987,526.994 
		462.504,526.61 454.689,525.818 448.699,524.967 441.502,523.656 433.933,521.936 426.223,519.816 418.805,517.418 
		409.278,513.804 402.821,511 395.72,507.569 389.846,504.447 384.458,501.347 378.431,497.596 372.165,493.363 367.297,489.826 
		361.673,485.453 354.201,479.128 347.205,472.623 341.17,466.506 335.538,460.321 329.332,453.335 321.297,443.001 	"/>
</g>
<g id="Layer_3" display="none">
	<line display="inline" fill="none" stroke="#000000" stroke-miterlimit="10" x1="273" y1="367.5" x2="683" y2="367.5"/>
	<line display="inline" fill="none" stroke="#000000" stroke-miterlimit="10" x1="477.5" y1="553" x2="477.5" y2="-8"/>
	<line display="inline" fill="none" stroke="#000000" stroke-miterlimit="10" x1="362" y1="164.5" x2="636" y2="164.5"/>
</g>
<g id="thumb">
	<polygon fill="#9D82CF" stroke="#724BBA" stroke-miterlimit="10" points="228.056,204.8 226.397,201.9 223.997,198.174 
		222.158,195.726 220.826,194.141 217.776,190.964 215.101,188.696 211.634,186.164 208.564,184.771 205.25,183.5 202,183.5 
		198.398,184.947 196.345,186.167 193.925,188.556 192.049,191.772 190.997,195.648 190.5,200.5 190.5,205 190.5,208 
		191.28,212.243 192.532,216.656 193.762,220 195.405,223.672 197.772,227.986 199.776,231.023 200.811,233.72 202.74,237.889 
		205.086,242.96 207.881,249 210.021,253.625 212.925,259.9 215.976,266.492 220.017,275.224 221.533,278.5 223.147,281.99 
		224.184,284.229 222.696,287.484 222.162,291.001 222.67,294.524 225.1,298.997 227.945,303.264 229.427,305.5 231,305.5 
		223.147,244.261 222.148,239.928 221.522,236.5 219.895,231.75 219.334,228.552 219.164,225.582 219.523,221.254 220.21,218.199 
		221.691,214.301 224.201,210.072 225.779,208.102 	"/>
</g>
<g id="backhand">
	<path fill="#724BBA" stroke="#FFFFFF" stroke-miterlimit="10" d="M377.448,90.886l3.871-5.214l0.453-3.333l-2.162-4.11
		l-6.924-8.455L366,68.823l-9.333,5.283l-6.418,6.39l-8.94,6.804l-9.545,7.265l-10.517,8.004l-10.188,7.882l-2.276,3.049H300
		l-6.68,5.958l-2.769,5.509L280,141.768l-12.083,18.283L257.5,175.812l-9.363,14.167l-4.59,7.442l-7.157,3.39l-10.299,6.942
		l-4.347,6.432l-2.58,11.397l1.221,7.953l1.958,4.621l3.208,23.11L227.164,277l1.012,6.444l5.205,43.977l6.015,50.824l4.818,40.712
		l-5.242,4.332l-5.292,8.512L232,441l1.026,7.229l3.041,6.726l2.109,2.86c0,0-7.238,29.743-7.449,30.611s-5.505,22.626-5.505,22.626
		l-2.533,12.613l4.602,8.835l15.967,5.438l10.998,2.677l13.411,3.795l12.066-2.665l5.115-9.245l3.622-14.883l9.003-37.002
		l7.645-31.416l1.238-8.199l-2.339-5.437l-2.243-3.239l-15.487,1.833l4.506-3.877l0.002-6.124l-4.504-15.617l-7.05-24.445
		l-6.768-23.467l-8.89-28.242L266.416,277l1.477-30l1.498-21.418l7.561-3.001l4.019,2.658l5.864-12.12L302,185.353l14.359-27.234
		l1.264-7.416l4.929-0.798l5.327-3.044l4.291-6.132l4.002-4.271l6.914-7.377l9.018-9.623L377.448,90.886z"/>
	
		<ellipse transform="matrix(-0.5421 -0.8403 0.8403 -0.5421 497.4615 438.884)" fill="#724BBA" cx="368.31" cy="83.903" rx="12.685" ry="19.779"/>
</g>
<g id="palm">
	<polygon fill="#BAA7DD" stroke="#FFFFFF" stroke-miterlimit="10" points="284.45,434.187 290.792,430.28 290.795,424.156 
		288.154,415 266.332,339.336 263.582,332.385 267.27,259.666 269.39,225.582 276.951,222.581 280.97,225.238 282.853,234.538 
		285.387,298.19 299.833,361.119 301.647,368 301.432,391.527 306.017,410.999 305.118,423.165 304.939,426.824 303.188,431.518 
		296.679,432.927 	"/>
	<polygon fill="#9D82CF" stroke="#724BBA" stroke-miterlimit="10" points="723.745,203.8 725.404,200.9 727.805,197.174 
		729.643,194.726 730.975,193.141 734.025,189.964 736.7,187.696 740.167,185.164 743.236,183.771 746.551,182.5 749.801,182.5 
		753.402,183.947 755.455,185.167 757.875,187.556 759.752,190.772 760.903,194.648 761.5,199.5 761.5,204 761.5,207 
		760.62,211.243 759.318,215.656 758.064,219 756.408,222.672 754.034,226.986 752.028,230.023 750.992,232.72 749.062,236.889 
		746.715,241.96 743.92,248 741.779,252.625 738.875,258.9 735.824,265.492 731.784,274.224 730.268,277.5 728.653,280.99 
		727.617,283.229 729.105,286.484 729.639,290.001 729.131,293.524 726.701,297.997 723.855,302.264 722.374,304.5 720.801,304.5 
		728.653,243.261 729.652,238.928 730.279,235.5 731.906,230.75 732.467,227.552 732.637,224.582 732.277,220.254 731.59,217.199 
		730.109,213.301 727.6,209.072 726.021,207.102 	"/>
	<path fill="#724BBA" stroke="#FFFFFF" stroke-miterlimit="10" d="M574.353,89.886l-3.87-5.214l-0.453-3.333l2.162-4.11l6.924-8.455
		l6.686-0.95l9.334,5.283l6.418,6.39l8.939,6.804l9.546,7.265l10.517,8.004l10.188,7.882l2.276,3.049h8.782l6.68,5.958l2.77,5.509
		l10.551,16.801l12.084,18.283l10.416,15.761l9.363,14.167l4.59,7.442l7.156,3.39l10.3,6.942l4.347,6.432l2.58,11.397l-1.221,7.953
		l-1.959,4.621l-3.207,23.11L724.637,276l-1.012,6.444l-5.205,43.977l-6.016,50.824l-4.818,40.712l5.242,4.332l5.293,8.512
		l1.68,9.199l-1.025,7.229l-3.041,6.726l-2.109,2.86c0,0,7.237,29.743,7.448,30.611s5.505,22.626,5.505,22.626l2.533,12.613
		l-4.602,8.835l-15.967,5.438l-10.998,2.677l-13.41,3.795l-12.066-2.665l-5.115-9.245l-3.622-14.883l-9.003-37.002l-7.645-31.416
		L645.445,440l2.339-5.437l2.243-3.239l15.486,1.833l-4.506-3.877l-0.002-6.124l4.504-15.617l7.051-24.445l6.768-23.467
		l8.891-28.242L685.385,276l-1.477-30l-1.498-21.418l-7.561-3.001l-4.019,2.658l-5.864-12.12l-15.166-27.765l-14.359-27.234
		l-1.264-7.416l-4.93-0.798l-5.326-3.044l-4.291-6.132l-4.002-4.271l-6.914-7.377l-9.018-9.623L574.353,89.886z"/>
	
		<ellipse transform="matrix(0.5421 -0.8403 0.8403 0.5421 197.5289 528.2881)" fill="#724BBA" cx="583.491" cy="82.903" rx="12.685" ry="19.778"/>
	<polygon fill="#BAA7DD" stroke="#FFFFFF" stroke-miterlimit="10" points="667.351,433.187 661.008,429.28 661.006,423.156 
		663.646,414 685.469,338.336 688.219,331.385 684.531,258.666 682.41,224.582 674.85,221.581 670.831,224.238 668.947,233.538 
		665.82,285.312 660.604,318.097 656.967,355.119 657.153,367 650.369,390.527 646.784,408.999 646.684,422.165 646.861,425.824 
		648.612,430.518 655.122,431.927 	"/>
	<polyline fill="none" stroke="#FFFFFF" stroke-miterlimit="10" points="715.883,264.75 717.217,259.459 718.558,254.896 
		719.78,250.032 720.79,245.183 721.924,242.242 723.006,239.717 723.681,237.637 724.282,234.876 724.561,231.207 724.5,228.334 
		724.5,226 723.651,223.077 722.363,219.735 720.197,215.894 717.239,212.238 714.246,209.581 712.304,208.102 708.279,206.149 
		706.22,205.404 704.136,204.83 700.801,203.167 698.969,201.667 696.8,199.896 694.969,198.164 692.801,195.667 691.301,193.167 
		689.801,191.167 688.018,188.334 686.135,185.167 683.905,182.131 682.095,178.696 680.068,174.852 	"/>
	<polyline fill="none" stroke="#FFFFFF" stroke-miterlimit="10" points="712.972,198.84 709.359,198.5 705.801,198.5 
		716.66,200.687 	"/>
	<polyline fill="#724BBA" stroke="#FFFFFF" stroke-miterlimit="10" points="688.219,243.649 684.816,240.061 682.162,235.5 
		681.064,232.663 680.068,228.349 679.801,224.582 680.068,220.847 680.463,218.716 680.852,217.199 681.366,215.608 	"/>
	<polyline fill="#724BBA" stroke="#FFFFFF" stroke-miterlimit="10" points="707.586,417.957 702.265,415.417 696.801,414 
		693.801,410.5 	"/>
	<polyline fill="#724BBA" stroke="#FFFFFF" stroke-miterlimit="10" points="713.625,456.814 710.988,459.5 702.265,464.583 
		700.693,469 	"/>
	<polyline fill="none" stroke="#FFFFFF" stroke-miterlimit="10" points="682.5,465 682.5,463 680.168,462.075 678.167,460.734 
		676.084,459 673.987,456.814 671.947,454.07 670.067,450.607 669.267,447.539 668.5,441.5 668.5,439 668.5,437 668.582,434.095 
		669.353,431.278 670.186,429.18 671.034,427.461 671.625,426.432 672.63,425.051 673.5,423.335 673.5,422 	"/>
	<line fill="none" stroke="#FFFFFF" stroke-miterlimit="10" x1="682.301" y1="323" x2="695.051" y2="335.75"/>
	<line fill="none" stroke="#FFFFFF" stroke-miterlimit="10" x1="695.051" y1="323" x2="683.426" y2="334.625"/>
	<line fill="none" stroke="#FFFFFF" stroke-miterlimit="10" x1="700.34" y1="328.359" x2="689.262" y2="329.641"/>
	<line fill="none" stroke="#FFFFFF" stroke-miterlimit="10" x1="688.377" y1="328.407" x2="675.301" y2="322.122"/>
	<polyline fill="none" stroke="#FFFFFF" stroke-miterlimit="10" points="654.128,114.786 649.801,112.5 645.801,112.5 
		640.742,109.451 637.609,107.027 635.234,105.189 633.701,104.004 	"/>
	<polyline fill="none" stroke="#FFFFFF" stroke-miterlimit="10" points="615.66,91.761 612.525,89.425 609.283,86.219 
		606.127,83.088 603.363,81.235 599.521,78.992 594.492,76.5 589.801,76.5 584.801,76.5 581.029,79.289 577.872,82.182 
		576.533,86.31 577.424,91.761 	"/>
	<polyline fill="none" stroke="#FFFFFF" stroke-miterlimit="10" points="754.028,226.986 750.99,232.72 747.461,235.5 
		743.599,238.928 736.209,242.907 731.135,243.5 	"/>
	<line fill="none" stroke="#FFFFFF" stroke-miterlimit="10" x1="667.584" y1="270.415" x2="678.385" y2="281.217"/>
	<line fill="none" stroke="#FFFFFF" stroke-miterlimit="10" x1="657.23" y1="390.33" x2="668.301" y2="384.667"/>
	<line fill="none" stroke="#FFFFFF" stroke-miterlimit="10" x1="741.051" y1="254.199" x2="732.637" y2="249.5"/>
	<line fill="none" stroke="#FFFFFF" stroke-miterlimit="10" x1="731" y1="274.5" x2="728" y2="274.5"/>
	<polyline fill="none" stroke="#FFFFFF" stroke-miterlimit="10" points="661.801,140.604 659.746,138.347 656.67,136.341 
		654.301,135.5 651.801,135.5 649.801,133 649.269,130.03 648.387,127.586 647.078,125.268 645.182,122.993 642.925,121.135 
		640.742,119.903 638.15,118.969 635.934,118.558 633.701,118.458 632.32,117.114 630.555,115.229 628.389,112.917 626.752,111.171 
		622.002,106.103 612.337,95.789 607.016,90.111 603.381,86.231 597.567,79.496 594.401,76.65 586.301,73.963 581.937,73.452 
		576.922,74.3 575.293,75.092 574.004,76.057 572.634,77.656 571.762,79.496 571.334,81.903 571.457,83.995 571.789,85.537 
		572.347,87.184 573.682,88.983 575.24,90.541 576.97,91.856 577.866,92.539 579.115,93.489 581.605,94.262 583.181,94.988 	"/>
</g>
<g id="hand_lines">
	<polyline fill="none" stroke="#FFFFFF" stroke-miterlimit="10" points="235.918,265.75 234.583,260.459 233.243,255.896 
		232.021,251.032 231.011,246.183 229.876,243.242 228.794,240.717 228.12,238.637 227.519,235.876 227.34,232.207 227.5,229.334 
		227.5,227 228.249,224.077 229.487,220.735 231.629,216.894 234.574,213.238 237.56,210.581 239.5,209.102 243.523,207.149 
		245.582,206.404 247.665,205.83 251,204.167 252.833,202.667 255.001,200.896 256.833,199.164 259,196.667 260.5,194.167 
		262,192.167 263.783,189.334 265.666,186.167 267.896,183.131 269.706,179.696 271.733,175.852 	"/>
	<polyline fill="none" stroke="#FFFFFF" stroke-miterlimit="10" points="238.829,199.84 242.442,199.5 246,199.5 235.141,201.687 	
		"/>
	<polyline fill="#724BBA" stroke="#FFFFFF" stroke-miterlimit="10" points="263.582,244.649 266.984,241.061 269.639,236.5 
		270.737,233.663 271.733,229.349 272,225.582 271.733,221.847 271.338,219.716 270.949,218.199 270.435,216.608 	"/>
	<polyline fill="#724BBA" stroke="#FFFFFF" stroke-miterlimit="10" points="244.214,418.957 249.536,416.417 255,415 258,411.5 	"/>
	<polyline fill="#724BBA" stroke="#FFFFFF" stroke-miterlimit="10" points="238.176,457.814 240.812,460.5 249.536,465.583 
		251.107,470 	"/>
	<polyline fill="none" stroke="#FFFFFF" stroke-miterlimit="10" points="269.5,466 269.5,464 271.733,463.075 273.684,461.734 
		275.741,460 277.827,457.814 279.859,455.07 281.737,451.607 282.636,448.539 283.5,442.5 283.5,440 283.5,438 283.318,435.095 
		282.498,432.278 281.641,430.18 280.779,428.461 280.181,427.432 279.273,426.051 278.5,424.335 278.5,423 	"/>
	<line fill="none" stroke="#FFFFFF" stroke-miterlimit="10" x1="269.5" y1="324" x2="256.75" y2="336.75"/>
	<line fill="none" stroke="#FFFFFF" stroke-miterlimit="10" x1="256.75" y1="324" x2="268.375" y2="335.625"/>
	<line fill="none" stroke="#FFFFFF" stroke-miterlimit="10" x1="251.461" y1="329.359" x2="262.539" y2="330.641"/>
	<line fill="none" stroke="#FFFFFF" stroke-miterlimit="10" x1="263.424" y1="329.407" x2="276.5" y2="323.122"/>
	<polyline fill="none" stroke="#FFFFFF" stroke-miterlimit="10" points="297.673,115.786 302,113.5 306,113.5 311.059,110.451 
		314.191,108.027 316.567,106.189 318.099,105.004 	"/>
	<polyline fill="none" stroke="#FFFFFF" stroke-miterlimit="10" points="347.141,82.761 350.276,80.425 353.518,77.219 
		356.673,74.088 359.437,72.235 363.279,69.992 368.309,67.5 373,67.5 378,67.5 381.771,70.289 384.929,73.182 386.268,77.31 
		385.377,82.761 	"/>
	<polyline fill="none" stroke="#FFFFFF" stroke-miterlimit="10" points="197.772,227.986 200.811,233.72 204.34,236.5 
		208.202,239.928 215.592,243.907 220.667,244.5 	"/>
	<line fill="none" stroke="#FFFFFF" stroke-miterlimit="10" x1="287.217" y1="271.415" x2="276.416" y2="282.217"/>
	<line fill="none" stroke="#FFFFFF" stroke-miterlimit="10" x1="294.571" y1="391.33" x2="283.5" y2="385.667"/>
	<line fill="none" stroke="#FFFFFF" stroke-miterlimit="10" x1="210.75" y1="255.199" x2="219.164" y2="250.5"/>
	<line fill="none" stroke="#FFFFFF" stroke-miterlimit="10" x1="221" y1="275.5" x2="224" y2="275.5"/>
</g>
<g id="finger_lines">
	<polyline fill="none" stroke="#FFFFFF" stroke-miterlimit="10" points="290,141.604 292.055,139.347 295.131,137.341 297.5,136.5 
		300,136.5 302,134 302.532,131.03 303.415,128.586 304.723,126.268 306.619,123.993 308.876,122.135 311.059,120.903 
		313.651,119.969 315.867,119.558 318.099,119.458 319.48,118.114 321.246,116.229 323.412,113.917 325.049,112.171 
		329.799,107.103 339.464,96.789 344.785,91.111 348.42,87.231 354.233,80.496 357.399,77.65 365.5,74.963 369.864,74.452 
		374.879,75.3 376.507,76.092 377.797,77.057 379.167,78.656 380.039,80.496 380.466,82.903 380.344,84.995 380.012,86.537 
		379.454,88.184 378.119,89.983 376.561,91.541 374.831,92.856 373.935,93.539 372.686,94.489 370.195,95.262 368.62,95.988 	"/>
</g>
<g id="outer_x5F_eyes">
	<circle fill="#FFFFFF" cx="399.494" cy="162.249" r="48.952"/>
</g>
<g id="eyes">
	<circle fill="#724BBA" stroke="#9D82CF" stroke-width="2" stroke-miterlimit="10" cx="406.232" cy="157.414" r="39.92"/>
	<circle fill="#BAA7DD" stroke="#FFFFFF" stroke-miterlimit="10" cx="425.743" cy="152.733" r="11.575"/>
</g>
<g id="up_x5F_eyelids">
	<path fill="none" stroke="#FFFFFF" stroke-width="3" stroke-miterlimit="10" d="M461.726,156.746
		c-68.85-66.489-120.5,17.201-120.5,17.201"/>
</g>
<g id="bot_x5F_eyelids">
	<path fill="#BAA7DD" stroke="#FFFFFF" stroke-miterlimit="10" d="M343.872,204.374c0,0,47.887-38.78,112.19-16.015"/>
	<path fill="#BAA7DD" d="M309.338,157.67"/>
</g>
<g id="eyes_fix">
	<path fill="#BAA7DD" d="M464.726,158.746l-5.443-4.301l-5.756-4.988l-7.175-5.36l-6.498-4.051l-8.696-4.229l-10.149-3.24
		l-7.5-1.226l-7.258-0.182l-4.808,0.315l-10.405,2.321l-6.825,2.289l-5.017,2.368l-5.339,3.131l-4.815,3.127l-3.623,2.868
		l-3.774,3.502l-4.684,4.344l-5.051,4.686l-4.868,5.705l-2.223,2.962l-6.595,9.161l-1.005-27.103l1.729-10.491l18.132-10.936
		l8.619-4.26l20.825-15.229l16.986-1.599l15.044,5.054l14.204,2.064l10.816,1.486l6.69,2.488c0,0,12.281,9.815,12.493,10.336
		s5.563,15.13,5.563,15.13L464.726,158.746z"/>
	<path fill="#BAA7DD" d="M465.747,197.772c0.638,4.472-4.645,8.925-11.801,9.947L352.154,222.25
		c-7.156,1.021-13.474-1.776-14.113-6.248l-0.514-3.604c-0.639-4.472,4.645-8.925,11.8-9.947L451.12,187.92
		c7.156-1.021,13.474,1.776,14.112,6.248L465.747,197.772z"/>
	<path fill="#BAA7DD" d="M606,211l-103,3"/>
	<circle fill="#FFFFFF" cx="556.414" cy="159.302" r="48.952"/>
	<circle fill="#724BBA" stroke="#9D82CF" stroke-width="2" stroke-miterlimit="10" cx="563.909" cy="155.749" r="39.92"/>
	<circle fill="#BAA7DD" stroke="#FFFFFF" stroke-miterlimit="10" cx="583.941" cy="154.636" r="11.575"/>
	<path fill="none" stroke="#FFFFFF" stroke-width="2" stroke-miterlimit="10" d="M618.626,165.023
		c-55.842-77.737-121.635-4.64-121.635-4.64"/>
	<path fill="#BAA7DD" stroke="#FFFFFF" stroke-miterlimit="10" d="M494.151,190.793c0,0,54.054-29.585,113.246,4.319"/>
	<path fill="#BAA7DD" d="M618.626,163.023l-1.991-2.701l-4.771-5.938l-5.101-5.558l-7.668-6.149l-5.799-3.716l-11.406-6.004
		l-6.16-2.549l-12.135-2.114l-7.541,0.113l-4.995,0.425l-7.36,1.432l-6.812,2.125l-5.298,2.215l-5.077,2.174l-5.341,2.77
		l-5.385,3.436l-4.808,3.708l-7.468,5.952l-4.059,3.306l-2.462,2.433l0.195-23.447l3.578-10.012l19.796-7.515l9.241-2.648
		l23.214-11.258l16.999,2.467l13.896,6.664l13.604,8.572l5.376,7.397l11.138,7.645c0,0,3.325,8.854,3.441,9.405
		c0.114,0.55,7.172,4.376,7.172,4.376L618.626,163.023z"/>
	<path fill="#BAA7DD" d="M615.241,206.106c-0.173,4.514-6.168,7.95-13.391,7.674l-102.749-3.918
		c-7.224-0.275-12.939-4.159-12.768-8.672l0.14-3.638c0.172-4.514,6.167-7.95,13.391-7.674l102.749,3.918
		c7.223,0.275,12.938,4.158,12.767,8.672L615.241,206.106z"/>
</g>
<g id="pupils">
	<circle fill="#FFFFFF" stroke="#FFFFFF" stroke-miterlimit="10" cx="419.475" cy="147.191" r="2.733"/>
	<circle fill="#FFFFFF" stroke="#FFFFFF" stroke-miterlimit="10" cx="578.475" cy="148.191" r="2.733"/>
</g>
<g id="fur">
	<g>
		<path fill="#724BBA" d="M392,89c20-17,36-39,64-43c-3,5-7,9-11,14c22-4,33-22,42-41c3,9,4,24-1,34c12-8,22-22,36-25
			c13-2,19,8,31,6c-15,5-26,6-35,20c20,12,34-12,53-13c-7,10-25,14-24,29c13,2,31-13,37-23c3,7-2,16-5,23"/>
		<g>
			<path fill="#FFFFFF" d="M392.265,89.265c11.34-9.725,21.426-20.875,33.441-29.811c6.128-4.558,12.847-8.204,20.075-10.68
				c1.408-0.482,2.849-0.86,4.288-1.237c0.404-0.106,5.417-1.424,4.679-0.255c-2.828,4.481-6.674,8.354-10.012,12.452
				c-0.238,0.292-0.019,0.703,0.365,0.627c14.329-2.843,24.787-11.846,32.736-23.759c2.084-3.124,3.912-6.417,5.672-9.73
				c0.894-1.682,1.735-3.391,2.575-5.1c1.526-3.106,1.495,0.583,1.87,2.276c2.071,9.343,1.803,20.004-2.277,28.762
				c-0.144,0.309,0.174,0.747,0.514,0.513c8.645-5.934,15.664-13.866,24.317-19.789c5.522-3.779,11.725-6.076,18.457-5.125
				c4.466,0.63,8.551,2.939,12.703,4.566c3.249,1.273,7.234,1.974,9.794,1.135c-4.751,1.558-9.584,2.848-14.298,4.522
				c-8.249,2.931-14.63,7.898-19.487,15.178c-0.112,0.168-0.035,0.417,0.135,0.513c16.825,9.518,30.068-5.371,45.096-11.18
				c2.217-0.857,4.535-1.372,6.888-1.674c-0.08,0.01-2.896,3.453-3.337,3.844c-3.314,2.939-7.144,5.284-10.646,7.988
				c-5.523,4.263-9.421,9.483-9.186,16.699c0.007,0.223,0.167,0.351,0.375,0.375c10.039,1.172,19.562-5.18,26.871-11.356
				c3.772-3.188,7.171-6.883,9.926-10.985c0.024-0.038,0.736,3.657,0.734,4.529c-0.005,1.974-0.603,3.958-1.143,5.838
				c-1.135,3.945-3.072,7.659-4.713,11.41c-0.191,0.439,0.455,0.821,0.648,0.379c3.143-7.191,7.862-15.286,5.037-23.289
				c-0.107-0.305-0.506-0.377-0.686-0.09c-3.972,6.359-9.659,11.562-15.74,15.866c-1.68,1.189-20.443,10.918-20.601,6.099
				c-0.442-13.538,17.109-18.312,23.989-27.585c0.165-0.223-0.057-0.585-0.324-0.564c-14.916,1.169-25.144,14.543-39.803,16.266
				c-1.601,0.188-13.97-1.059-11.996-4.017c2.715-4.069,6.319-7.377,10.455-9.951c7.029-4.374,15.662-6.01,23.443-8.562
				c0.381-0.125,0.339-0.794-0.1-0.737c-9.229,1.202-16.338-4.88-25.145-6.124c-8.45-1.193-16.251,3.986-22.556,8.947
				c-3.96,3.116-7.622,6.609-11.415,9.922c-2.212,1.932-4.502,3.764-6.881,5.486c0.738-0.534,1.44-4.376,1.737-5.559
				c2.218-8.81,1.33-18.804-1.38-27.398c-0.09-0.286-0.537-0.4-0.686-0.09c-5.175,10.854-10.991,21.556-19.848,29.876
				c-4.997,4.694-11.044,7.965-17.578,9.942c-0.022,0.007-3.845,1.465-2.786,0.164c1.151-1.414,2.354-2.788,3.537-4.176
				c2.294-2.691,4.435-5.436,6.323-8.428c0.193-0.307-0.123-0.598-0.423-0.551c-27.325,4.26-44.357,26.109-64.166,43.097
				C391.367,89.05,391.9,89.578,392.265,89.265L392.265,89.265z"/>
		</g>
	</g>
	<g>
		<path fill="#724BBA" d="M230,285c-1-13-3-30-19-32c13-4,17,10,21,18c6-7,10-15,17-21c-6,9-6,19-7,29c8-3,12-11,15-18
			c2,6,0,14-1,20c6-4,9-11,14-15c2,8-1,15-5,22"/>
		<g>
			<path fill="#FFFFFF" d="M230.375,285c-0.759-9.642-1.643-22.884-10.451-28.977c-2.345-1.623-4.745-2.583-7.523-3.184
				c1.266,0.274,3.841-0.188,5.492,0.139c1.923,0.38,3.57,1.595,4.994,2.867c4.362,3.896,6.292,10.231,8.789,15.344
				c0.101,0.206,0.44,0.254,0.589,0.076c2.564-3.078,4.883-6.323,7.204-9.586c1.602-2.254,3.265-4.456,5.03-6.585
				c0.778-0.939,4.655-6.355,2.389-2.247c-4.337,7.866-4.435,17.446-5.264,26.154c-0.03,0.317,0.333,0.421,0.564,0.324
				c5.607-2.373,9.212-6.646,12.151-11.851c0.691-1.225,1.281-2.509,1.878-3.781c1.606-3.424,1.218,1.894,1.262,3.299
				c0.145,4.652-1.05,9.35-1.842,13.91c-0.049,0.285,0.255,0.639,0.551,0.424c4.544-3.298,7.516-7.893,11.088-12.133
				c1.155-1.371,2.418-3.752,2.91,0.179c0.262,2.095-0.054,4.295-0.418,6.344c-0.767,4.314-2.978,8.319-5.093,12.097
				c-0.237,0.423,0.411,0.801,0.647,0.379c3.956-7.062,6.738-14.115,5.038-22.289c-0.062-0.296-0.429-0.337-0.627-0.166
				c-2.182,1.885-3.959,4.049-5.72,6.324c-0.922,1.191-1.825,2.353-2.771,3.516c-0.523,0.644-4.588,3.836-4.635,4.107
				c1.083-6.237,2.484-12.532,0.754-18.781c-0.08-0.286-0.55-0.401-0.686-0.09c-1.307,3.01-2.712,5.934-4.424,8.737
				c-1.224,2.004-2.75,3.761-4.42,5.396c0.165-0.162-5.525,4.768-5.298,2.391c0.912-9.578,1.547-18.778,6.79-27.144
				c0.235-0.375-0.282-0.73-0.589-0.455c-4.679,4.2-8.241,9.217-11.867,14.312c-1.298,1.825-2.639,3.607-4.03,5.364
				c-1.168,1.475-1.406-0.469-1.765-1.249c-0.895-1.949-1.774-3.901-2.742-5.816c-3.622-7.172-9.095-11.933-17.43-9.708
				c-0.336,0.09-0.381,0.665,0,0.724c15.521,2.397,17.705,18.67,18.725,31.638C229.663,285.479,230.413,285.482,230.375,285
				L230.375,285z"/>
		</g>
	</g>
	<g>
		<path fill="#724BBA" d="M241,408c-2,7-14,20-21,17c7,5,15,4,19-4c-5,8-9,17-13,25c4-7,12-11,19-15c0,3,2,10,2,13c9-4,15-14,23-19
			c2,6,3,12,3,18c6-5,6-15,7-23c7,5,9,12,14,19c2-13-3-29-13-37"/>
		<g>
			<path fill="#FFFFFF" d="M240.638,407.9c-2.243,6.844-12.14,19.566-20.539,16.738c-0.42-0.142-0.63,0.461-0.289,0.686
				c7.29,4.802,15.132,3.727,19.513-4.135c0.236-0.424-0.395-0.791-0.647-0.379c-4.919,8.027-8.82,16.58-13,25
				c-0.214,0.431,0.39,0.792,0.647,0.379c3.859-6.198,10.002-9.846,16.204-13.359c2.852-1.617,2.253,0.235,2.712,2.744
				c0.512,2.799,1.24,5.574,1.386,8.426c0.015,0.297,0.304,0.449,0.564,0.324c5.748-2.775,10.083-7.306,14.527-11.776
				c1.034-1.04,7.71-8.116,8.492-5.648c1.648,5.205,2.326,10.659,2.417,16.101c0.005,0.334,0.401,0.487,0.64,0.266
				c4.586-4.261,5.63-10.316,6.358-16.286c0.229-1.872,0.393-3.753,0.593-5.629c0.119-1.112,6.074,5.813,5.972,5.671
				c2.76,3.877,4.788,8.241,7.488,12.168c0.225,0.327,0.649,0.177,0.699-0.189c1.802-13.416-2.549-28.376-13.11-37.266
				c-0.367-0.309-0.901,0.219-0.53,0.531c8.724,7.343,12.836,18.625,13.311,29.799c0.034,0.787-0.208,6.039-0.684,5.347
				c-1.51-2.196-2.78-4.565-4.109-6.872c-2.433-4.223-5.178-7.879-9.062-10.863c-0.253-0.194-0.536,0.081-0.564,0.324
				c-0.747,6.363-0.905,12.951-3.761,18.813c-2.942,6.039-2.598,0.171-2.969-3.014c-0.434-3.716-1.407-7.343-2.533-10.899
				c-0.07-0.22-0.341-0.363-0.551-0.225c-5.625,3.72-9.955,8.937-14.891,13.467c-1.174,1.077-7.235,6.902-7.732,3.772
				c-0.577-3.628-1.625-7.238-1.812-10.915c-0.015-0.282-0.308-0.47-0.564-0.324c-4.048,2.298-8.104,4.538-11.872,7.284
				c-1.261,0.919-2.403,1.97-3.532,3.04c-0.71,0.708-1.375,1.456-1.994,2.244c-1.308,1.566-0.414,1.586-0.338,1.434
				c2.343-4.719,4.588-9.484,6.994-14.172c1.359-2.648,2.817-5.242,4.33-7.806c-0.756-1.252-1.465-0.712-2.127,1.621
				c-1.362,1.603-3.2,2.463-5.154,3.064c-2.817,0.868-5.859-0.049-8.423-1.195c-2.235-1-2.087-0.434-0.195-0.378
				c2.779,0.081,5.577-1.779,7.722-3.302c4.779-3.391,9.299-8.789,11.142-14.411C241.513,407.639,240.788,407.443,240.638,407.9
				L240.638,407.9z"/>
		</g>
	</g>
	<g>
		<path fill="#724BBA" d="M234,339c2,13,2,27-5,38c4-3,5-7,8-11"/>
		<g>
			<path fill="#FFFFFF" d="M233.638,339.1c1.885,12.842,1.948,26.259-4.962,37.711c-0.232,0.385,0.276,0.718,0.589,0.455
				c3.636-3.064,5.378-7.248,8.059-11.076c0.278-0.397-0.373-0.771-0.647-0.379c-2.188,3.125-4.785,7.124-6.514,9.988
				c2.232-3.699,3.498-7.937,4.385-12.129c1.716-8.113,1.007-16.643-0.186-24.77C234.292,338.423,233.569,338.627,233.638,339.1
				L233.638,339.1z"/>
		</g>
	</g>
	<g>
		<path fill="#724BBA" d="M295,488c-3,10-4,24-1,34c-1-3-3-5-4-8c0,8-3,21,4,27c-3-1-7,0-11-2c-1,6,2,11,7,14c-4-3-8-6-13-8"/>
		<g>
			<path fill="#FFFFFF" d="M294.638,487.9c-1.901,6.653-2.777,13.453-2.824,20.366c-0.021,3.2,0.308,6.384,0.815,9.539
				c0.172,0.977,0.38,1.945,0.625,2.906c0.461,0.008,0.626-0.102,0.496-0.327c-1.134-2.178-2.465-4.192-3.388-6.484
				c-0.152-0.377-0.73-0.35-0.737,0.1c-0.094,6.294-1.122,12.521-0.208,18.803c0.333,2.286,1.204,4.949,2.71,6.746
				c1.038,1.237,0.879,0.795-0.92,0.592c-2.821-0.317-5.412-0.419-8.107-1.502c-0.249-0.101-0.45,0.146-0.475,0.361
				c-0.705,6.21,2.043,10.954,7.186,14.324c0.413,0.271,0.756-0.366,0.379-0.648c-4.126-3.087-8.247-5.953-13-8
				c-0.439-0.188-0.822,0.457-0.379,0.648c2.67,1.149,5.14,2.51,7.579,4.088c1.403,0.907,2.742,1.922,4.086,2.913
				c-0.596-0.439-2.873-3.769-3.216-4.233c-0.651-0.882-3.785-9.304-0.648-8.042c2.875,1.155,6.303,0.6,9.289,1.312
				c0.354,0.085,0.645-0.358,0.365-0.627c-4.671-4.475-4.696-11.039-4.432-17.077c0.109-2.49,0.344-4.976,0.482-7.465
				c0.173-3.118-0.058-0.563-0.065-0.577c1.134,2.178,2.465,4.192,3.388,6.484c0.176,0.437,0.856,0.278,0.724-0.199
				c-3.034-10.949-2.095-22.971,1-33.801C295.495,487.634,294.771,487.437,294.638,487.9L294.638,487.9z"/>
		</g>
	</g>
	<g>
		<path fill="#724BBA" d="M234,483c-3,10-8,17-14,23c1,1,2,1,3,2c-2,6-7,10-13,11c3,1,6,5,9,6c-2,2-4,7-8,9c6,2,11,1,16-2
			c0,2,3,6,3,9c7-16,20,2,26,8c2-3,7-5,8-7c1,2,2,5,3,8c2-1,1-2,3-4"/>
		<g>
			<path fill="#FFFFFF" d="M233.638,482.9c-2.791,8.825-7.438,16.245-13.903,22.834c-0.183,0.188-0.117,0.446,0.076,0.59
				c0.6,0.526,1.267,0.945,2,1.259c1.837,0.953-2.282,5.757-2.601,6.131c-2.361,2.767-5.843,4.205-9.309,4.925
				c-0.302,0.062-0.385,0.553-0.09,0.686c0.367,0.164,8.533,5.855,8.322,6.095c-2.536,2.881-3.857,6.182-7.322,8.257
				c-0.281,0.169-0.223,0.595,0.09,0.686c4.164,1.219,7.937,1.311,12.088-0.012c1.493-0.476,3.431-2.426,4.119-0.422
				c0.831,2.421,2.228,4.444,2.518,7.072c0.037,0.33,0.521,0.562,0.699,0.189c7.005-14.661,19.041,1.564,25.411,8.076
				c0.131,0.134,0.404,0.158,0.53,0c1.659-2.083,3.854-3.354,5.926-4.964c0.498-0.386,1.285-0.911,1.661-1.444
				c-0.154,0.218,2.552,6.542,2.786,7.242c0.072,0.215,0.341,0.368,0.551,0.225c1.724-1.181,1.591-2.239,3.076-4.059
				c0.303-0.372-0.224-0.905-0.53-0.531c-0.004,0.006-2.475,3.863-2.973,2.374c-0.718-2.143-1.499-4.244-2.438-6.298
				c-0.127-0.279-0.502-0.206-0.647,0c-1.746,2.472-4.982,3.85-7.173,5.96c-1.124,1.082-3.907-2.982-4.72-3.866
				c-3.157-3.427-6.542-6.888-10.802-8.91c-2.459-1.168-5.711-1.219-7.81,0.741c-0.775,0.725-3.165,3.184-2.938,3.999
				c-0.739-2.663-2.454-5.118-2.871-7.834c-0.038-0.247-0.359-0.332-0.551-0.225c-2.193,1.234-4.378,2.154-6.822,2.72
				c-0.354,0.082-8.647,0.039-7.581-0.814c2.925-2.343,4.424-5.551,6.858-8.315c0.145-0.165,0.158-0.484-0.076-0.59
				c-2.552-1.143-4.543-3.103-6.75-4.781c-1.358-1.032-1.56-0.646,0.351-1.204c0.886-0.259,1.768-0.717,2.595-1.112
				c3.905-1.868,6.48-5.552,7.977-9.479c0.063-0.167-0.046-0.329-0.172-0.424c-2.553-1.891-2.163-2.12-0.012-4.503
				c1.63-1.806,3.08-3.758,4.466-5.752c3.034-4.363,5.123-9.277,6.718-14.321C234.508,482.638,233.784,482.441,233.638,482.9
				L233.638,482.9z"/>
		</g>
	</g>
	<g>
		<path fill="#724BBA" d="M272,154c6-10,6-24,6-36c0,8-2,15-4,23c6-5,10-14,11-22c-1,6-2,13-4,19c2-3,5-6,7-10c0,2-1,3-1,5"/>
		<g>
			<path fill="#FFFFFF" d="M272.324,154.189c6.183-10.949,6.047-23.975,6.051-36.189c0-0.484-0.741-0.483-0.75,0
				c-0.148,7.856-2.08,15.329-3.987,22.9c-0.094,0.376,0.35,0.611,0.627,0.365c6.39-5.682,9.877-13.813,11.097-22.166
				c0.068-0.47-0.645-0.679-0.724-0.199c-1.055,6.402-2.051,12.796-4,19c-0.135,0.429,0.453,0.62,0.686,0.289
				c1.412-2.006,2.962-3.908,4.434-5.869c0.235-0.314,2.09-4.304,1.381-1.92c-0.437,1.471-0.327,1.001-0.513,2.6
				c-0.056,0.48,0.695,0.475,0.75,0c0.2-1.723,0.801-3.285,1-5c0.044-0.379-0.53-0.5-0.699-0.189
				c-1.47,2.697-5.381,7.316-5.793,8.629c1.425-4.535,2.152-9.302,2.927-13.98c0.65-3.92-0.586-0.972-0.976,0.742
				c-0.552,2.427-1.466,4.772-2.458,7.046c-0.804,1.843-1.855,3.56-2.95,5.24c0.042-0.065-3.974,5.253-3.604,3.782
				c1.169-4.645,2.311-9.272,3.029-14.012c0.273-1.8,0.388-3.614,0.489-5.43c-0.978-0.599-1.218-0.152-0.719,1.343
				c-0.003,1.08-0.013,2.159-0.028,3.239c-0.113,10.052-0.878,20.477-5.917,29.4C271.438,154.232,272.086,154.61,272.324,154.189
				L272.324,154.189z"/>
		</g>
	</g>
	<g>
		<path fill="#724BBA" d="M649,438c-1,10-8,18-15,24c2-2,7-4,10-6c0,6,0,12,0,17c4-3,8-6,11-10c-1,6,0,13,5,18c2-9,1-20,6-28"/>
		<g>
			<path fill="#FFFFFF" d="M648.625,438c-1.309,9.88-7.619,17.389-14.891,23.734c-0.365,0.319,0.167,0.845,0.531,0.531
				c1.573-1.361,3.355-2.303,5.178-3.275c0.807-0.431,4.182-3.131,4.182-0.991c0,5,0,10.001,0,15.001
				c0,0.26,0.329,0.501,0.564,0.324c2.242-1.687,4.45-3.392,6.571-5.23c1.251-1.086,2.366-2.299,3.469-3.531
				c0.704-0.787,0.054,2.46,0.047,2.714c-0.131,5.271,1.955,10.148,5.458,13.989c0.184,0.2,0.571,0.107,0.627-0.166
				c1.899-9.343,1.066-19.404,5.963-27.91c0.241-0.42-0.407-0.798-0.648-0.379c-3.135,5.447-3.961,11.521-4.611,17.678
				c-0.163,1.536-0.318,3.073-0.491,4.608c-0.164,1.463-0.378,2.919-0.643,4.366c-1.171-0.455-1.989-1.254-2.454-2.396
				c-2.56-4.095-2.757-9.337-2.115-13.967c0.045-0.319-0.361-0.697-0.627-0.365c-1.391,1.743-2.872,3.311-4.504,4.829
				c-0.673,0.626-5.855,5.13-5.855,3.734c0-5.1,0-10.198,0-15.298c0-0.278-0.32-0.476-0.564-0.324
				c-2.689,1.681-5.57,3.015-8.277,4.667c-2.201,1.345,0.095,0.724,0.936-0.039c1.496-1.357,2.882-2.826,4.239-4.321
				c4.614-5.084,7.764-11.16,8.667-17.982C649.438,437.521,648.688,437.527,648.625,438L648.625,438z"/>
		</g>
	</g>
	<g>
		<path fill="#724BBA" d="M661,504c-2,10-2,20,0,29c2-3,5-6,7-9c1,6-2,13-4,18c1,0,3-1,5-2c0,6-3,11-7,15c10-2,17-7,21-16"/>
		<g>
			<path fill="#FFFFFF" d="M660.639,503.9c-1.823,9.723-2.01,19.49,0,29.199c0.071,0.347,0.514,0.331,0.686,0.09
				c1.568-2.211,3.314-4.259,5.028-6.353c1.186-1.448,1.431-2.205,1.462,0.232c0.066,5.075-2.324,10.22-4.176,14.831
				c-0.117,0.291,0.213,0.508,0.461,0.461c0.849-0.158,1.393-0.283,2.215-0.662c2.55-1.175,2.122,1.008,1.695,2.887
				c-0.892,3.928-3.567,7.312-6.275,10.148c-0.267,0.28,0.002,0.706,0.365,0.627c9.608-2.089,16.989-7.166,21.225-16.172
				c0.204-0.436-0.442-0.816-0.648-0.379c-3.454,7.348-8.993,12.2-16.674,14.784c-1.558,0.524-3.738,1.79-1.666-0.61
				c1.025-1.188,1.84-2.523,2.635-3.869c1.637-2.772,2.261-5.943,2.404-9.115c0.014-0.303-0.324-0.442-0.564-0.324
				c-0.555,0.275-4.76,3.197-3.931,1.134c0.767-1.911,1.484-3.833,2.141-5.784c1.211-3.6,1.775-7.25,1.354-11.025
				c-0.042-0.375-0.474-0.506-0.699-0.189c-1.881,2.651-4.035,5.075-6.028,7.639c-0.299,0.384-1.468-6.134-1.562-7.149
				c-0.622-6.742,0.032-13.57,1.275-20.2C661.45,503.627,660.728,503.426,660.639,503.9L660.639,503.9z"/>
		</g>
	</g>
	<g>
		<path fill="#724BBA" d="M724,518c0,9,5,17,14,18c-6,2-13,1-19,0c3,1,7,4,11,5c-13,3-28-11-31,5c-3-4-8-5-13-4"/>
		<g>
			<path fill="#FFFFFF" d="M723.625,518c0.159,5.717,1.904,10.963,6.173,14.9c1.888,1.741,4.331,2.671,6.782,3.26
				c-1.652-0.396-5.215,0.6-7.194,0.614c-3.44,0.026-6.906-0.585-10.286-1.136c-0.479-0.078-0.65,0.545-0.199,0.723
				c3.274,1.29,6.237,3.218,9.502,4.539c-0.64-0.259-2.469,0.154-3.192,0.15c-1.988-0.012-3.967-0.407-5.909-0.798
				c-4.558-0.917-9.101-2.761-13.819-2.368c-3.211,0.266-5.049,2.654-6.169,5.427c-1.038,2.571-2.612-0.401-4.645-1.097
				c-2.944-1.008-5.709-1.064-8.768-0.576c-0.477,0.076-0.273,0.799,0.199,0.723c4.887-0.779,9.275,0.007,12.635,3.904
				c0.182,0.21,0.568,0.099,0.627-0.166c1.912-8.598,8.049-7.978,15.1-6.233c5.195,1.284,10.286,2.521,15.639,1.495
				c0.384-0.073,0.332-0.621,0-0.723c-3.017-0.929-5.712-2.44-8.488-3.9c-2.399-1.261-0.896-0.055,0.748,0.164
				c5.343,0.709,10.52,0.948,15.74-0.541c0.331-0.094,0.385-0.664,0-0.723c-9.045-1.383-13.484-9.006-13.725-17.639
				C724.361,517.518,723.611,517.516,723.625,518L723.625,518z"/>
		</g>
	</g>
	<g>
		<path fill="#724BBA" d="M713,478c-1,12,4,24,15,11c0,3-2,6-3,8"/>
		<g>
			<path fill="#FFFFFF" d="M712.625,478c-0.356,5.186-0.351,13.203,4.649,16.412c1.771,1.136,3.949,0.447,5.651-0.404
				c1.688-0.845,3.098-2.327,4.385-3.66c-0.111,0.114-1.265,3.884-1.246,3.844c-0.429,0.888-0.931,1.745-1.389,2.619
				c-0.224,0.428,0.424,0.808,0.648,0.379c1.396-2.67,2.812-5.129,3.051-8.189c0.025-0.322-0.431-0.503-0.641-0.266
				c-3.146,3.568-8.548,8.415-12.23,2.812c-2.484-3.78-2.426-9.224-2.129-13.546C713.408,477.517,712.658,477.521,712.625,478
				L712.625,478z"/>
		</g>
	</g>
	<g>
		<path fill="#724BBA" d="M710,471c3,0,8,1,11,2c-1,2-2,4-4,6"/>
		<g>
			<path fill="#FFFFFF" d="M710,471.375c3.673,0.064,7.411,0.864,10.9,1.986c-0.075-0.184-0.149-0.367-0.225-0.551
				c-1.086,2.166-2.257,4.155-3.941,5.924c-0.333,0.351,0.197,0.882,0.531,0.531c1.727-1.815,2.939-3.846,4.059-6.076
				c0.111-0.222,0.016-0.474-0.225-0.551c-3.552-1.143-7.358-1.948-11.1-2.014C709.516,470.616,709.517,471.366,710,471.375
				L710,471.375z"/>
		</g>
	</g>
	<g>
		<path fill="#724BBA" d="M708,466c4-9,9-21,20-20c-6,2-13,1-19,4c0-4-1-8,0-12c-1,7-4,14-9,19c-4-4-11-5-16-5c5,0,8,5,7,11
			c-1,1-2,0-3,0"/>
		<g>
			<path fill="#FFFFFF" d="M708.324,466.189c2.647-5.968,5.256-12.199,10.16-16.696c1.675-1.535,3.73-2.421,5.906-2.958
				c5.961-1.471-1.993,0.262-2.65,0.349c-3.869,0.513-7.595,0.817-11.32,2.084c-1.632,0.555-1.31-3.493-1.359-4.11
				c-0.074-0.904-0.112-8.092-1.025-3.733c-1.12,5.342-3.703,10.258-7.182,14.423c-1.054,1.261-6.281-2.263-7.718-2.727
				c-2.912-0.939-6.101-1.147-9.136-1.195c-0.49-0.008-0.475,0.71,0,0.75c3.399,0.287,5.259,2.15,6.379,5.206
				c0.758,2.067,0.979,5.781-2.279,5.058c-0.471-0.105-0.672,0.618-0.199,0.723c5.543,1.232,4.038-4.778,2.174-8.301
				c-0.889-1.677-2.968-3.174-4.867-3.334c-0.248,0.85,0.16,1.092,1.225,0.727c1.746,0.084,3.47,0.389,5.179,0.744
				c3.048,0.634,5.807,1.996,8.124,4.068c0.149,0.133,0.385,0.154,0.531,0c5.069-5.388,7.898-11.904,9.096-19.166
				c0.078-0.471-0.635-0.678-0.723-0.199c-0.745,4.057-0.139,8.013-0.014,12.1c0.01,0.307,0.307,0.438,0.564,0.324
				c6.026-2.66,12.666-2.148,18.91-3.963c0.415-0.12,0.32-0.717-0.1-0.736c-11.52-0.522-16.386,11.31-20.324,20.186
				C707.481,466.249,708.128,466.631,708.324,466.189L708.324,466.189z"/>
		</g>
	</g>
	<g>
		<path fill="#724BBA" d="M688,278c0-6,2-11,4-16c0,4,0,8,0,12c1-6,4-12,7-17c-2,5-3,8-4,13c5-8,7-18,8-28c0,11,1,22,3,32
			c6-6,9-14,10-22c-3,7-3,16-5,23c6-5,12-10,17-16c-2,7-4,13-6,19c5-6,12-13,20-12c-7,10-19,18-21,30"/>
		<g>
			<path fill="#FFFFFF" d="M688.375,278c0.149-4.554,1.235-8.655,2.803-12.892c1.003-2.711,0.447-0.863,0.447,0.892
				c0,2.667,0,5.333,0,8c0,0.414,0.653,0.523,0.736,0.1c1.091-5.56,3.376-10.609,6.146-15.522c-0.795-0.292-1.15,0.176-1.064,1.404
				c-0.341,0.91-0.663,1.828-0.966,2.751c-0.793,2.339-1.333,4.753-1.838,7.167c-0.086,0.409,0.461,0.666,0.686,0.289
				c4.812-8.092,6.757-17.164,7.863-26.425c-0.987,0.122-1.161,0.827-0.521,2.117c0.028,1.291,0.069,2.581,0.125,3.871
				c0.12,3.197,0.379,6.386,0.675,9.571c0.462,4.96,1.229,9.888,2.173,14.777c0.054,0.278,0.442,0.36,0.627,0.166
				c5.871-6.204,8.905-13.776,10.096-22.166c0.068-0.477-0.544-0.655-0.723-0.199c-2.908,7.383-2.998,15.385-5,23
				c-0.102,0.385,0.349,0.597,0.627,0.365c5.071-4.229,10.081-8.495,14.625-13.298c1.644-1.737,1.39-1.813,0.657,0.659
				c-0.525,1.771-1.082,3.533-1.637,5.294c-1.052,3.339-2.166,6.659-3.272,9.98c-0.116,0.347,0.384,0.652,0.627,0.365
				c3.339-3.943,6.871-7.58,11.398-10.166c2.225-1.271,9.732-4.243,5.471,1.026c-1.526,1.889-3.197,3.664-4.845,5.447
				c-5.822,6.302-11.907,12.634-13.651,21.328c-0.095,0.472,0.628,0.673,0.723,0.199c2.5-12.462,13.871-20.114,20.963-29.91
				c0.179-0.248-0.068-0.548-0.324-0.564c-5.993-0.386-10.703,2.586-15.022,6.466c-1.163,1.046-2.219,2.214-3.276,3.364
				c-2.366,2.574-0.121-1.019,0.297-2.285c1.541-4.664,2.998-9.353,4.363-14.071c0.101-0.346-0.377-0.657-0.627-0.365
				c-2.346,2.739-4.838,5.296-7.463,7.767c-1.31,1.232-2.672,2.408-4.027,3.588c-0.671,0.584-4.346,2.968-4.508,3.584
				c1.661-6.316,2.865-14.465,3.675-20.175c-0.53,3.74-1.695,7.353-3.193,10.808c-0.901,2.08-5.501,11.709-6.521,6.024
				c-1.675-9.337-2.271-18.857-2.322-28.331c-0.003-0.494-0.7-0.47-0.75,0c-0.739,6.965-1.926,13.769-4.303,20.374
				c-0.754,2.096-1.743,4.052-2.795,6.005c-0.048,0.09,0.771-2.369,0.871-2.76c0.748-2.914,1.86-5.726,2.963-8.519
				c0.16-0.405-0.476-0.645-0.686-0.289c-2.011,3.417-3.794,6.903-5.249,10.592c-0.398,1.062-0.751,2.139-1.057,3.231
				c-0.787,1.548-0.785,2.003,0.005,1.366c0-3.333,0-6.667,0-10c0-0.451-0.587-0.475-0.736-0.1
				c-2.099,5.266-3.827,10.395-4.014,16.1C687.609,278.484,688.359,278.482,688.375,278L688.375,278z"/>
		</g>
	</g>
	<g>
		<path fill="#724BBA" d="M694,362c-1,17,7,31,25,35c-7-5-11-13-10-21"/>
		<g>
			<path fill="#FFFFFF" d="M693.625,362c-0.779,17.273,8.093,31.233,25.275,35.361c0.438,0.105,0.615-0.437,0.289-0.686
				c-6.63-5.046-10.543-12.237-9.814-20.676c0.042-0.482-0.709-0.479-0.75,0c-0.502,5.814,1.094,10.956,4.429,15.715
				c1.207,1.723,2.808,3.364,4.48,4.637c-1.707-1.299-5.96-2.141-8.393-3.466c-11.244-6.123-15.312-18.788-14.767-30.886
				C694.396,361.517,693.646,361.519,693.625,362L693.625,362z"/>
		</g>
	</g>
	<g>
		<path fill="#724BBA" d="M686,354c3,13-1,25-6,37c4-2,7-6,9-9"/>
		<g>
			<path fill="#FFFFFF" d="M685.639,354.1c2.66,12.898-1.116,24.954-6,36.801c-0.133,0.321,0.291,0.57,0.551,0.424
				c3.896-2.215,6.64-5.473,9.135-9.135c0.272-0.401-0.378-0.775-0.648-0.379c-1.009,1.481-2.044,2.871-3.2,4.254
				c-0.441,0.527-5.07,4.93-4.407,3.321c1.627-3.945,3.051-7.958,4.24-12.056c2.23-7.684,2.669-15.595,1.053-23.43
				C686.264,353.427,685.541,353.628,685.639,354.1L685.639,354.1z"/>
		</g>
	</g>
	<g>
		<path fill="#724BBA" d="M671,147c2-7,1-16-7-18c5,1,10,6,12,11c2-2,5-5,6-8c-4,8-7,16-6,24"/>
		<g>
			<path fill="#FFFFFF" d="M671.361,147.1c1.276-4.928,1.408-10.166-1.427-14.583c-1.001-1.56-2.874-2.962-4.629-3.505
				c-0.304,1.326,0.541,1.974,2.535,1.942c1.317,0.811,2.514,1.768,3.589,2.869c1.886,1.774,3.189,4.037,4.246,6.367
				c0.102,0.223,0.432,0.234,0.59,0.076c2.435-2.451,4.699-4.86,6.059-8.076c0.183-0.434-0.431-0.821-0.648-0.379
				c-3.75,7.648-6.829,15.53-6.051,24.189c0.043,0.478,0.793,0.482,0.75,0c-0.422-4.695,0.27-9.12,1.631-13.615
				c0.886-2.924,2.184-5.723,3.478-8.482c-0.278-1.242-0.64-1.09-1.084,0.456c-0.833,1.223-1.758,2.37-2.775,3.44
				c-2.032,2.258-4.141-2.837-5.664-4.506c-2.109-2.311-4.875-3.845-7.86-4.654c-0.469-0.127-0.66,0.581-0.199,0.724
				c7.805,2.412,8.508,10.707,6.738,17.539C670.517,147.369,671.24,147.567,671.361,147.1L671.361,147.1z"/>
		</g>
	</g>
	<polyline fill="#724BBA" points="570.029,69.289 566.872,72.182 565.516,76.5 566.835,82.761 571.334,89.245 576.615,93.562 
		580.372,96.672 583,101.022 583.491,104.004 519.5,75.13 520.5,67.823 	"/>
	<g>
		<g>
			<path fill="#FFFFFF" d="M649.361,163.9c-1.098-6.156-3.027-12.079-5-18c-0.229,0.096-0.457,0.192-0.686,0.289
				c3.915,5.68,9.086,10.32,13,16c0.166,0.241,0.623,0.258,0.686-0.09c0.979-5.382,0.979-10.817,0-16.199
				c-0.086-0.476-0.809-0.273-0.723,0.199c0.517,2.84,0.731,5.654,0.731,8.535c0,1.26-0.105,2.516-0.213,3.769
				c-0.241,2.818-0.067,2.939-1.342,1.291c-3.682-4.763-8.068-8.915-11.491-13.883c-0.229-0.333-0.827-0.137-0.686,0.289
				c1.972,5.921,3.902,11.844,5,18C648.724,164.575,649.446,164.373,649.361,163.9L649.361,163.9z"/>
		</g>
	</g>
</g>
</svg>
